# xmcd
#
# Track frame offsets:
# 150
# 8983
# 27210
# 44169
# 64839
# 87501
# 108290
# 126205
# 140664
# 156371
# 170329
# 192004
# 212509
# 230324
# 241966
# 257093
# 273600
# 293051
# 309993
#
# Disc length: 4270 seconds
#
#
# Revision: 0
# Processed by: cddbd v1.5PL3 Copyright (c) Steve Scherf et al.
# Submitted via: FreeRIP 2.35 
#
DISCID=1110ac13
DTITLE=Three 6 Mafia - Da Unbreakables
DYEAR=1900
DGENRE=
TTITLE0=They Bout To Find Yo Body
TTITLE1=Fuck That Shit
TTITLE2=Wolf Wolf
TTITLE3=Testin My Gangsta
TTITLE4=Bin Laden
TTITLE5=Ridin Spinners
TTITLE6=Try Somethin'
TTITLE7=Money Didn't Change Me
TTITLE8=Ghetto Chick
TTITLE9=Shake Dat Jelly
TTITLE10=Let's Start A Riot
TTITLE11=Rainbow Colors
TTITLE12=Like A Pimp
TTITLE13=Beatem To Da Floor
TTITLE14=Put Cha Dick In Her Mouth
TTITLE15=Mosh Pit
TTITLE16=You Scared Part II
TTITLE17=Dangerous Posse
TTITLE18=Outro
EXTD=
EXTT0=
EXTT1=
EXTT2=
EXTT3=
EXTT4=
EXTT5=
EXTT6=
EXTT7=
EXTT8=
EXTT9=
EXTT10=
EXTT11=
EXTT12=
EXTT13=
EXTT14=
EXTT15=
EXTT16=
EXTT17=
EXTT18=
PLAYORDER=
